<svg width="109" height="70" viewBox="0 0 109 70" fill="none" xmlns="http://www.w3.org/2000/svg">
<g id="Frame" clip-path="url(#clip0_1_219)">
<path id="Vector" d="M2.02433 61.5191L2.02442 61.5189C6.38562 52.3705 13.5512 37.36 20.212 23.4068C24.0367 15.3946 27.695 7.73111 30.5604 1.72629L30.5604 1.7263L30.5625 1.72181C30.6777 1.47414 30.7703 1.38419 30.8434 1.34019C30.9214 1.29324 31.0509 1.25409 31.3306 1.25409C33.1337 1.25409 35.3069 1.25859 37.642 1.26343L38.2056 1.2646C40.7538 1.26986 43.471 1.27511 46.0936 1.27511C52.2763 1.27511 56.3504 7.72513 53.6873 13.3003L53.6872 13.3004C51.5739 17.727 49.0551 23.0043 46.3679 28.634C39.7895 42.4161 32.2026 58.3112 27.089 69.0137C26.974 69.2528 26.8927 69.3488 26.8237 69.3979C26.7647 69.4398 26.6594 69.4865 26.4048 69.4867C21.3066 69.4447 13.3257 69.4447 7.031 69.4447H7.02758C2.95073 69.4447 0.266641 65.2021 2.02433 61.5191Z" fill="#9686FF" stroke="url(#paint0_linear_1_219)"/>
<path id="Vector_2" d="M37.4251 61.479L37.4254 61.4783C43.175 49.515 53.642 27.6494 61.0973 12.0282L61.0994 12.0237C61.2146 11.776 61.3072 11.686 61.3803 11.642C61.4583 11.5951 61.5878 11.5559 61.8675 11.5559C64.0235 11.5559 66.709 11.5605 69.5694 11.5654L70.1669 11.5664C73.2494 11.5717 76.5036 11.577 79.4946 11.577C84.3497 11.577 87.5401 16.6383 85.4459 21.0155C79.5913 33.2305 69.6723 53.96 62.4699 69.0132C62.3547 69.2527 62.2734 69.3488 62.2043 69.3979C62.1453 69.4398 62.04 69.4865 61.7854 69.4867C56.7083 69.4447 48.7484 69.4447 42.4538 69.4447H42.4503C38.3514 69.4447 35.649 65.16 37.4251 61.479Z" fill="#9686FF" stroke="url(#paint1_linear_1_219)"/>
<path id="Vector_3" d="M71.2702 61.3067L71.2691 61.309C69.4689 65.0772 72.218 69.4447 76.3988 69.4447C81.7047 69.4447 88.0021 69.4447 92.1315 69.4657C92.3107 69.4655 92.356 69.4249 92.3729 69.4098L92.3733 69.4094C92.4191 69.3684 92.4643 69.2967 92.5659 69.0942C93.6589 66.804 94.7511 64.5127 95.8434 62.2211C99.8638 53.7867 103.886 45.3485 107.96 36.9497L107.961 36.9483C108.542 35.7602 108.414 34.6571 107.888 33.862C107.357 33.0607 106.386 32.5194 105.174 32.538L71.2702 61.3067ZM71.2702 61.3067C71.438 60.9508 71.6059 60.5999 71.7744 60.2475L71.7748 60.2468C71.9428 59.8956 72.1116 59.5429 72.2804 59.1847M71.2702 61.3067L72.2804 59.1847M72.2804 59.1847C73.8459 55.9176 75.4147 52.6528 76.9833 49.3884C79.6124 43.9168 82.2409 38.4465 84.8525 32.9689C84.9597 32.7461 85.0395 32.6682 85.0971 32.632C85.1543 32.596 85.2558 32.5592 85.4959 32.5591C86.8023 32.5633 88.1101 32.5691 89.4188 32.575C94.666 32.5986 99.9273 32.6222 105.174 32.538L72.2804 59.1847Z" fill="#9686FF" stroke="url(#paint2_linear_1_219)"/>
</g>
<defs>
<linearGradient id="paint0_linear_1_219" x1="5.94122" y1="18.9176" x2="41.6209" y2="58.2381" gradientUnits="userSpaceOnUse">
<stop/>
<stop offset="1" stop-color="white"/>
</linearGradient>
<linearGradient id="paint1_linear_1_219" x1="43.0773" y1="22.5584" x2="74.388" y2="61.8788" gradientUnits="userSpaceOnUse">
<stop/>
<stop offset="1" stop-color="white"/>
</linearGradient>
<linearGradient id="paint2_linear_1_219" x1="82.3978" y1="37.8496" x2="99.1454" y2="63.3351" gradientUnits="userSpaceOnUse">
<stop/>
<stop offset="1" stop-color="white"/>
</linearGradient>
<clipPath id="clip0_1_219">
<rect width="107.911" height="69.2116" fill="white" transform="translate(0.962402 0.754089)"/>
</clipPath>
</defs>
</svg>
